<mxfile host="app.diagrams.net" modified="2023-10-23T11:14:01.743Z" agent="Mozilla/5.0 (Windows NT 10.0; Win64; x64) AppleWebKit/537.36 (KHTML, like Gecko) Chrome/118.0.0.0 Safari/537.36" etag="rtm-TEzH-2z-mN3BMLFJ" version="22.0.6" type="device">
  <diagram id="s7YUqAwLv2jjFuKSCgTS" name="Page-1">
    <mxGraphModel dx="1290" dy="530" grid="1" gridSize="10" guides="1" tooltips="1" connect="1" arrows="1" fold="1" page="1" pageScale="1" pageWidth="850" pageHeight="1100" math="1" shadow="0">
      <root>
        <mxCell id="0" />
        <mxCell id="1" parent="0" />
        <mxCell id="7dxSffOUapI8bhPMduBq-15" value="Formulate guess: `Y_t`, `\bar{Y}_t`, `\pi_t`, `r_t^R`, `H_t^E`, `B_t`" style="rounded=1;whiteSpace=wrap;html=1;fillColor=#dae8fc;strokeColor=#6c8ebf;fontStyle=1" parent="1" vertex="1">
          <mxGeometry x="183" y="5" width="120" height="60" as="geometry" />
        </mxCell>
        <mxCell id="7dxSffOUapI8bhPMduBq-19" value="Labour market: `\hat{U}_t-&amp;gt;U_t-&amp;gt;L_t`" style="rounded=1;whiteSpace=wrap;html=1;fillColor=#ffe6cc;strokeColor=#d79b00;fontStyle=1" parent="1" vertex="1">
          <mxGeometry x="53" y="105" width="120" height="60" as="geometry" />
        </mxCell>
        <mxCell id="7dxSffOUapI8bhPMduBq-20" value="Supply side: `\hat{Y}_t-&amp;gt;\hat{K}_t-&amp;gt;\hat{I}_t` `-&amp;gt;I_t-&amp;gt;K_t`" style="rounded=1;whiteSpace=wrap;html=1;fillColor=#ffe6cc;strokeColor=#d79b00;fontStyle=1" parent="1" vertex="1">
          <mxGeometry x="183" y="105" width="120" height="60" as="geometry" />
        </mxCell>
        <mxCell id="7dxSffOUapI8bhPMduBq-33" style="edgeStyle=orthogonalEdgeStyle;rounded=0;orthogonalLoop=1;jettySize=auto;html=1;entryX=0.966;entryY=0.243;entryDx=0;entryDy=0;entryPerimeter=0;" parent="1" source="7dxSffOUapI8bhPMduBq-21" target="7dxSffOUapI8bhPMduBq-36" edge="1">
          <mxGeometry relative="1" as="geometry">
            <mxPoint x="370" y="260" as="targetPoint" />
          </mxGeometry>
        </mxCell>
        <mxCell id="7dxSffOUapI8bhPMduBq-21" value="Prices: `P_t-&amp;gt;\hat{\Pi}_t-&amp;gt;\Psi_t` `-&amp;gt;\eta_t-&amp;gt;F_t-&amp;gt;V_t^F`" style="rounded=1;whiteSpace=wrap;html=1;fillColor=#ffe6cc;strokeColor=#d79b00;fontStyle=1" parent="1" vertex="1">
          <mxGeometry x="313" y="105" width="120" height="60" as="geometry" />
        </mxCell>
        <mxCell id="7dxSffOUapI8bhPMduBq-25" value="Wages: &lt;br&gt;`\hat{\Pi}_t^W` `-&amp;gt;\Pi_t^W-&amp;gt;w_t`" style="rounded=1;whiteSpace=wrap;html=1;fillColor=#fff2cc;strokeColor=#d6b656;fontStyle=1" parent="1" vertex="1">
          <mxGeometry x="313" y="250" width="120" height="60" as="geometry" />
        </mxCell>
        <mxCell id="7dxSffOUapI8bhPMduBq-31" style="edgeStyle=orthogonalEdgeStyle;rounded=0;orthogonalLoop=1;jettySize=auto;html=1;exitX=0.965;exitY=0.88;exitDx=0;exitDy=0;exitPerimeter=0;" parent="1" source="7dxSffOUapI8bhPMduBq-26" target="7dxSffOUapI8bhPMduBq-21" edge="1">
          <mxGeometry relative="1" as="geometry" />
        </mxCell>
        <mxCell id="7dxSffOUapI8bhPMduBq-32" style="edgeStyle=orthogonalEdgeStyle;rounded=0;orthogonalLoop=1;jettySize=auto;html=1;entryX=0.5;entryY=0;entryDx=0;entryDy=0;exitX=0.534;exitY=0.26;exitDx=0;exitDy=0;exitPerimeter=0;" parent="1" source="7dxSffOUapI8bhPMduBq-26" target="7dxSffOUapI8bhPMduBq-20" edge="1">
          <mxGeometry relative="1" as="geometry">
            <mxPoint x="241" y="94" as="sourcePoint" />
          </mxGeometry>
        </mxCell>
        <mxCell id="7dxSffOUapI8bhPMduBq-26" value="" style="shape=line;html=1;strokeWidth=6;strokeColor=#ff0000;" parent="1" vertex="1">
          <mxGeometry x="83" y="75" width="300" height="10" as="geometry" />
        </mxCell>
        <mxCell id="7dxSffOUapI8bhPMduBq-27" value="" style="edgeStyle=orthogonalEdgeStyle;html=1;verticalAlign=bottom;endArrow=classic;endSize=8;strokeColor=#000000;rounded=0;entryX=0.5;entryY=0;entryDx=0;entryDy=0;endFill=1;" parent="1" source="7dxSffOUapI8bhPMduBq-26" target="7dxSffOUapI8bhPMduBq-19" edge="1">
          <mxGeometry relative="1" as="geometry">
            <mxPoint x="193" y="165" as="targetPoint" />
            <Array as="points">
              <mxPoint x="113" y="105" />
              <mxPoint x="113" y="105" />
            </Array>
          </mxGeometry>
        </mxCell>
        <mxCell id="7dxSffOUapI8bhPMduBq-36" value="" style="shape=line;html=1;strokeWidth=6;strokeColor=#ff0000;" parent="1" vertex="1">
          <mxGeometry x="83" y="190" width="300" height="10" as="geometry" />
        </mxCell>
        <mxCell id="7dxSffOUapI8bhPMduBq-39" style="edgeStyle=orthogonalEdgeStyle;rounded=0;orthogonalLoop=1;jettySize=auto;html=1;entryX=0.536;entryY=0.8;entryDx=0;entryDy=0;entryPerimeter=0;" parent="1" source="7dxSffOUapI8bhPMduBq-20" target="7dxSffOUapI8bhPMduBq-36" edge="1">
          <mxGeometry relative="1" as="geometry" />
        </mxCell>
        <mxCell id="7dxSffOUapI8bhPMduBq-40" style="edgeStyle=orthogonalEdgeStyle;rounded=0;orthogonalLoop=1;jettySize=auto;html=1;entryX=0.101;entryY=0.64;entryDx=0;entryDy=0;entryPerimeter=0;" parent="1" source="7dxSffOUapI8bhPMduBq-19" target="7dxSffOUapI8bhPMduBq-36" edge="1">
          <mxGeometry relative="1" as="geometry" />
        </mxCell>
        <mxCell id="7dxSffOUapI8bhPMduBq-48" style="edgeStyle=orthogonalEdgeStyle;rounded=0;orthogonalLoop=1;jettySize=auto;html=1;entryX=0.5;entryY=0;entryDx=0;entryDy=0;" parent="1" source="7dxSffOUapI8bhPMduBq-42" target="7dxSffOUapI8bhPMduBq-44" edge="1">
          <mxGeometry relative="1" as="geometry" />
        </mxCell>
        <mxCell id="psU2joZIZZBoCHW19Mx0-7" style="edgeStyle=orthogonalEdgeStyle;rounded=0;orthogonalLoop=1;jettySize=auto;html=1;startArrow=classic;startFill=1;endArrow=none;endFill=0;entryX=0.099;entryY=0.743;entryDx=0;entryDy=0;entryPerimeter=0;" parent="1" source="7dxSffOUapI8bhPMduBq-42" target="psU2joZIZZBoCHW19Mx0-12" edge="1">
          <mxGeometry relative="1" as="geometry">
            <mxPoint x="113" y="270" as="targetPoint" />
          </mxGeometry>
        </mxCell>
        <mxCell id="7dxSffOUapI8bhPMduBq-42" value="&lt;b&gt;Interest Rates&lt;/b&gt;: `\sigma_t^B,\sigma_t^{\pi}-&amp;gt;r_t^B-&amp;gt;r_t^J`" style="rounded=1;whiteSpace=wrap;html=1;fillColor=#fff2cc;strokeColor=#d6b656;" parent="1" vertex="1">
          <mxGeometry x="53" y="250" width="120" height="60" as="geometry" />
        </mxCell>
        <mxCell id="7dxSffOUapI8bhPMduBq-44" value="&lt;b&gt;Inheritance &lt;/b&gt;`\cc{I}_t`" style="rounded=1;whiteSpace=wrap;html=1;fillColor=#fff2cc;strokeColor=#d6b656;" parent="1" vertex="1">
          <mxGeometry x="53" y="330" width="120" height="60" as="geometry" />
        </mxCell>
        <mxCell id="7dxSffOUapI8bhPMduBq-59" style="edgeStyle=orthogonalEdgeStyle;rounded=0;orthogonalLoop=1;jettySize=auto;html=1;entryX=0.5;entryY=0;entryDx=0;entryDy=0;exitX=0.273;exitY=0.686;exitDx=0;exitDy=0;exitPerimeter=0;" parent="1" source="psU2joZIZZBoCHW19Mx0-11" target="7dxSffOUapI8bhPMduBq-51" edge="1">
          <mxGeometry relative="1" as="geometry" />
        </mxCell>
        <mxCell id="7dxSffOUapI8bhPMduBq-49" value="" style="shape=line;html=1;strokeWidth=6;strokeColor=#ff0000;" parent="1" vertex="1">
          <mxGeometry x="83" y="410" width="300" height="10" as="geometry" />
        </mxCell>
        <mxCell id="7dxSffOUapI8bhPMduBq-51" value="&lt;b&gt;PAYG&lt;/b&gt;: `AB_t-&amp;gt;Y_t^{PAYG,**}` `-&amp;gt;Y_t^{PAYG}-&amp;gt;V_t^{PAYG}`" style="rounded=1;whiteSpace=wrap;html=1;fontSize=12;fillColor=#ffe6cc;strokeColor=#d79b00;" parent="1" vertex="1">
          <mxGeometry x="113" y="470" width="120" height="60" as="geometry" />
        </mxCell>
        <mxCell id="7dxSffOUapI8bhPMduBq-52" value="&lt;b&gt;FF&lt;/b&gt;: `AB_t^{FF}-&amp;gt;` `-&amp;gt;V_t^{FF,Y}-&amp;gt;Y_t^{FF,**}``-&amp;gt;Y_t^{FF}-&amp;gt;V_t^{FF}`" style="rounded=1;whiteSpace=wrap;html=1;fontSize=12;fillColor=#ffe6cc;strokeColor=#d79b00;" parent="1" vertex="1">
          <mxGeometry x="253" y="470" width="120" height="60" as="geometry" />
        </mxCell>
        <mxCell id="7dxSffOUapI8bhPMduBq-53" value="" style="shape=line;html=1;strokeWidth=6;strokeColor=#ff0000;" parent="1" vertex="1">
          <mxGeometry x="83" y="550" width="300" height="10" as="geometry" />
        </mxCell>
        <mxCell id="7dxSffOUapI8bhPMduBq-55" style="edgeStyle=orthogonalEdgeStyle;rounded=0;orthogonalLoop=1;jettySize=auto;html=1;entryX=0.299;entryY=0.66;entryDx=0;entryDy=0;entryPerimeter=0;exitX=0.5;exitY=1;exitDx=0;exitDy=0;" parent="1" source="7dxSffOUapI8bhPMduBq-51" target="7dxSffOUapI8bhPMduBq-53" edge="1">
          <mxGeometry relative="1" as="geometry">
            <mxPoint x="173" y="578" as="sourcePoint" />
          </mxGeometry>
        </mxCell>
        <mxCell id="7dxSffOUapI8bhPMduBq-56" style="edgeStyle=orthogonalEdgeStyle;rounded=0;orthogonalLoop=1;jettySize=auto;html=1;exitX=0.5;exitY=1;exitDx=0;exitDy=0;entryX=0.77;entryY=0.567;entryDx=0;entryDy=0;entryPerimeter=0;" parent="1" source="7dxSffOUapI8bhPMduBq-52" target="7dxSffOUapI8bhPMduBq-53" edge="1">
          <mxGeometry relative="1" as="geometry">
            <mxPoint x="313" y="578" as="sourcePoint" />
            <mxPoint x="313" y="565" as="targetPoint" />
          </mxGeometry>
        </mxCell>
        <mxCell id="7dxSffOUapI8bhPMduBq-60" style="edgeStyle=orthogonalEdgeStyle;rounded=0;orthogonalLoop=1;jettySize=auto;html=1;entryX=0.737;entryY=0.782;entryDx=0;entryDy=0;entryPerimeter=0;startArrow=classic;startFill=1;endArrow=none;endFill=0;" parent="1" source="7dxSffOUapI8bhPMduBq-52" target="psU2joZIZZBoCHW19Mx0-11" edge="1">
          <mxGeometry relative="1" as="geometry" />
        </mxCell>
        <mxCell id="7dxSffOUapI8bhPMduBq-61" value="&lt;b&gt;Fiscal Policy 1: `Z_t^O, Z_t^Y`&lt;/b&gt;" style="rounded=1;whiteSpace=wrap;html=1;fillColor=#fff2cc;strokeColor=#d6b656;" parent="1" vertex="1">
          <mxGeometry x="182" y="250" width="120" height="60" as="geometry" />
        </mxCell>
        <mxCell id="7dxSffOUapI8bhPMduBq-70" style="edgeStyle=orthogonalEdgeStyle;rounded=0;orthogonalLoop=1;jettySize=auto;html=1;entryX=0.5;entryY=0;entryDx=0;entryDy=0;exitX=0.299;exitY=0.689;exitDx=0;exitDy=0;exitPerimeter=0;" parent="1" source="7dxSffOUapI8bhPMduBq-64" target="7dxSffOUapI8bhPMduBq-67" edge="1">
          <mxGeometry relative="1" as="geometry" />
        </mxCell>
        <mxCell id="7dxSffOUapI8bhPMduBq-71" style="edgeStyle=orthogonalEdgeStyle;rounded=0;orthogonalLoop=1;jettySize=auto;html=1;entryX=0.5;entryY=0;entryDx=0;entryDy=0;exitX=0.768;exitY=0.774;exitDx=0;exitDy=0;exitPerimeter=0;" parent="1" source="7dxSffOUapI8bhPMduBq-64" target="7dxSffOUapI8bhPMduBq-68" edge="1">
          <mxGeometry relative="1" as="geometry" />
        </mxCell>
        <mxCell id="7dxSffOUapI8bhPMduBq-64" value="" style="shape=line;html=1;strokeWidth=6;strokeColor=#ff0000;" parent="1" vertex="1">
          <mxGeometry x="83" y="585" width="300" height="10" as="geometry" />
        </mxCell>
        <mxCell id="7dxSffOUapI8bhPMduBq-67" value="&lt;b&gt;Retired:&lt;br&gt;&amp;nbsp;&amp;nbsp;&lt;/b&gt;`Y_t^{O,d},\cc{W}_t^O-&amp;gt;` `-&amp;gt;\hat{C}_t^O-&amp;gt;C_t^O-&amp;gt;J_t^O`" style="rounded=1;whiteSpace=wrap;html=1;fontSize=12;fillColor=#fff2cc;strokeColor=#d6b656;" parent="1" vertex="1">
          <mxGeometry x="113" y="620" width="120" height="60" as="geometry" />
        </mxCell>
        <mxCell id="7dxSffOUapI8bhPMduBq-68" value="&lt;b&gt;Young&lt;/b&gt;: `Y_t^{Y,d},\cc{W}_t^Y-&amp;gt;` `-&amp;gt;\hat{C}_t^Y-&amp;gt;C_t^Y-&amp;gt;I_t^H` `-&amp;gt;V_t^H,\Delta R_t^H`" style="rounded=1;whiteSpace=wrap;html=1;fontSize=12;fillColor=#fff2cc;strokeColor=#d6b656;" parent="1" vertex="1">
          <mxGeometry x="253" y="620" width="120" height="60" as="geometry" />
        </mxCell>
        <mxCell id="7dxSffOUapI8bhPMduBq-72" value="" style="shape=line;html=1;strokeWidth=6;strokeColor=#ff0000;" parent="1" vertex="1">
          <mxGeometry x="83" y="779" width="300" height="10" as="geometry" />
        </mxCell>
        <mxCell id="7dxSffOUapI8bhPMduBq-74" style="edgeStyle=orthogonalEdgeStyle;rounded=0;orthogonalLoop=1;jettySize=auto;html=1;entryX=0.301;entryY=0.689;entryDx=0;entryDy=0;entryPerimeter=0;" parent="1" source="7dxSffOUapI8bhPMduBq-67" target="7dxSffOUapI8bhPMduBq-72" edge="1">
          <mxGeometry relative="1" as="geometry" />
        </mxCell>
        <mxCell id="7dxSffOUapI8bhPMduBq-75" style="edgeStyle=orthogonalEdgeStyle;rounded=0;orthogonalLoop=1;jettySize=auto;html=1;entryX=0.5;entryY=0;entryDx=0;entryDy=0;" parent="1" source="7dxSffOUapI8bhPMduBq-68" target="lNXBDe2plU8eYSZdUBsX-1" edge="1">
          <mxGeometry relative="1" as="geometry" />
        </mxCell>
        <mxCell id="7dxSffOUapI8bhPMduBq-89" style="edgeStyle=orthogonalEdgeStyle;rounded=0;orthogonalLoop=1;jettySize=auto;html=1;entryX=0.5;entryY=0;entryDx=0;entryDy=0;exitX=0.297;exitY=0.763;exitDx=0;exitDy=0;exitPerimeter=0;" parent="1" source="7dxSffOUapI8bhPMduBq-76" target="7dxSffOUapI8bhPMduBq-78" edge="1">
          <mxGeometry relative="1" as="geometry" />
        </mxCell>
        <mxCell id="7dxSffOUapI8bhPMduBq-90" style="edgeStyle=orthogonalEdgeStyle;rounded=0;orthogonalLoop=1;jettySize=auto;html=1;entryX=0.5;entryY=0;entryDx=0;entryDy=0;" parent="1" target="7dxSffOUapI8bhPMduBq-81" edge="1">
          <mxGeometry relative="1" as="geometry">
            <mxPoint x="312" y="822" as="sourcePoint" />
            <mxPoint x="313" y="850" as="targetPoint" />
          </mxGeometry>
        </mxCell>
        <mxCell id="7dxSffOUapI8bhPMduBq-76" value="" style="shape=line;html=1;strokeWidth=6;strokeColor=#ff0000;" parent="1" vertex="1">
          <mxGeometry x="83" y="814" width="300" height="10" as="geometry" />
        </mxCell>
        <mxCell id="7dxSffOUapI8bhPMduBq-77" style="edgeStyle=orthogonalEdgeStyle;rounded=0;orthogonalLoop=1;jettySize=auto;html=1;entryX=0.499;entryY=0.605;entryDx=0;entryDy=0;entryPerimeter=0;startArrow=classic;startFill=1;endArrow=none;endFill=0;" parent="1" source="7dxSffOUapI8bhPMduBq-76" target="7dxSffOUapI8bhPMduBq-72" edge="1">
          <mxGeometry relative="1" as="geometry" />
        </mxCell>
        <mxCell id="7dxSffOUapI8bhPMduBq-91" style="edgeStyle=orthogonalEdgeStyle;rounded=0;orthogonalLoop=1;jettySize=auto;html=1;entryX=0.5;entryY=0;entryDx=0;entryDy=0;" parent="1" source="7dxSffOUapI8bhPMduBq-78" target="7dxSffOUapI8bhPMduBq-80" edge="1">
          <mxGeometry relative="1" as="geometry" />
        </mxCell>
        <mxCell id="7dxSffOUapI8bhPMduBq-78" value="&lt;b&gt;Aggregates&lt;/b&gt;: &lt;b&gt;`C_t, G_t, X_t -&amp;gt; M_t, \upsilon_t`&lt;/b&gt;" style="rounded=1;whiteSpace=wrap;html=1;fontSize=12;fillColor=#ffe6cc;strokeColor=#d79b00;" parent="1" vertex="1">
          <mxGeometry x="113" y="850" width="120" height="60" as="geometry" />
        </mxCell>
        <mxCell id="7dxSffOUapI8bhPMduBq-80" value="&lt;b&gt;Fiscal Policy 2&lt;/b&gt;:&lt;b&gt;&amp;nbsp;`\Phi_t-&amp;gt;D_t`&lt;/b&gt;" style="rounded=1;whiteSpace=wrap;html=1;fontSize=12;fillColor=#ffe6cc;strokeColor=#d79b00;" parent="1" vertex="1">
          <mxGeometry x="113" y="930" width="120" height="60" as="geometry" />
        </mxCell>
        <mxCell id="7dxSffOUapI8bhPMduBq-81" value="&lt;b&gt;Banks:&lt;/b&gt;&amp;nbsp;&lt;br&gt;`J_t`, `H_t^E-&amp;gt;CASH_t,-&amp;gt;` `-&amp;gt;J_t^{**},\hat{R}_t,r^{J,**}`" style="rounded=1;whiteSpace=wrap;html=1;fontSize=12;fillColor=#ffe6cc;strokeColor=#d79b00;" parent="1" vertex="1">
          <mxGeometry x="253" y="850" width="120" height="60" as="geometry" />
        </mxCell>
        <mxCell id="7dxSffOUapI8bhPMduBq-82" value="" style="shape=line;html=1;strokeWidth=6;strokeColor=#ff0000;" parent="1" vertex="1">
          <mxGeometry x="83" y="1010" width="300" height="10" as="geometry" />
        </mxCell>
        <mxCell id="7dxSffOUapI8bhPMduBq-93" style="edgeStyle=orthogonalEdgeStyle;rounded=0;orthogonalLoop=1;jettySize=auto;html=1;entryX=0.299;entryY=0.468;entryDx=0;entryDy=0;entryPerimeter=0;" parent="1" source="7dxSffOUapI8bhPMduBq-80" target="7dxSffOUapI8bhPMduBq-82" edge="1">
          <mxGeometry relative="1" as="geometry" />
        </mxCell>
        <mxCell id="7dxSffOUapI8bhPMduBq-94" style="edgeStyle=orthogonalEdgeStyle;rounded=0;orthogonalLoop=1;jettySize=auto;html=1;entryX=0.5;entryY=0;entryDx=0;entryDy=0;" parent="1" source="7dxSffOUapI8bhPMduBq-81" target="MLq6qDdYJxUvrXIlotc3-2" edge="1">
          <mxGeometry relative="1" as="geometry" />
        </mxCell>
        <mxCell id="7dxSffOUapI8bhPMduBq-102" style="edgeStyle=orthogonalEdgeStyle;rounded=0;orthogonalLoop=1;jettySize=auto;html=1;entryX=0;entryY=0.5;entryDx=0;entryDy=0;" parent="1" source="7dxSffOUapI8bhPMduBq-95" target="7dxSffOUapI8bhPMduBq-101" edge="1">
          <mxGeometry relative="1" as="geometry" />
        </mxCell>
        <mxCell id="7dxSffOUapI8bhPMduBq-95" value="&lt;b style=&quot;border-color: var(--border-color);&quot;&gt;CRASH components:&amp;nbsp;&lt;/b&gt;&lt;br style=&quot;border-color: var(--border-color);&quot;&gt;`H_t^H, H_t^X, H_t`" style="rounded=1;whiteSpace=wrap;html=1;fillColor=#fff2cc;strokeColor=#d6b656;" parent="1" vertex="1">
          <mxGeometry x="183" y="1035" width="120" height="60" as="geometry" />
        </mxCell>
        <mxCell id="7dxSffOUapI8bhPMduBq-99" value="Supply Side:`\bar{Y}_t = A_t K_t^{1-\alpha}L_t^{\alpha}`&lt;br&gt;Demand Side: `Y_t = C_t+G_t+I_t+I_t^H+X_t-M_t`&lt;br&gt;Bank Crash component: `H_t^E = \phi_E max(-\bar{E}_{t}+\Lambda R_t+H_{min}^E,0)`&lt;br&gt;Optimal level of loans: `R_t = \lambda_R R_{t-1}+(1-\lambda_R) \hat{R}_t`&lt;br&gt;Marginal costs: `\psi_t = ((w_t)/(\alpha))^{\alpha}((\delta+\bar{r}_t^R)/(1-\alpha))^{1-\alpha}1/a_t^{TFP}`&lt;br&gt;Debt Evolution: `B_t = D_t+B_{t-1}/(1+\pi_t)`" style="text;html=1;strokeColor=#82b366;fillColor=#d5e8d4;align=left;verticalAlign=middle;whiteSpace=wrap;rounded=0;fontStyle=1" parent="1" vertex="1">
          <mxGeometry x="500" y="190" width="340" height="210" as="geometry" />
        </mxCell>
        <mxCell id="7dxSffOUapI8bhPMduBq-101" value="" style="rounded=1;whiteSpace=wrap;html=1;fillColor=#fff2cc;strokeColor=#d6b656;" parent="1" vertex="1">
          <mxGeometry x="320" y="1035" width="120" height="60" as="geometry" />
        </mxCell>
        <mxCell id="7dxSffOUapI8bhPMduBq-104" style="edgeStyle=orthogonalEdgeStyle;rounded=0;orthogonalLoop=1;jettySize=auto;html=1;entryX=0.534;entryY=0.608;entryDx=0;entryDy=0;entryPerimeter=0;startArrow=classic;startFill=1;endArrow=none;endFill=0;" parent="1" source="7dxSffOUapI8bhPMduBq-95" target="7dxSffOUapI8bhPMduBq-82" edge="1">
          <mxGeometry relative="1" as="geometry" />
        </mxCell>
        <mxCell id="7dxSffOUapI8bhPMduBq-109" style="edgeStyle=orthogonalEdgeStyle;rounded=0;orthogonalLoop=1;jettySize=auto;html=1;entryX=1;entryY=0.5;entryDx=0;entryDy=0;" parent="1" source="7dxSffOUapI8bhPMduBq-105" target="7dxSffOUapI8bhPMduBq-15" edge="1">
          <mxGeometry relative="1" as="geometry">
            <Array as="points">
              <mxPoint x="490" y="35" />
            </Array>
          </mxGeometry>
        </mxCell>
        <mxCell id="7dxSffOUapI8bhPMduBq-111" style="edgeStyle=orthogonalEdgeStyle;rounded=0;orthogonalLoop=1;jettySize=auto;html=1;dashed=1;endArrow=none;endFill=0;entryX=0.5;entryY=1;entryDx=0;entryDy=0;exitX=1;exitY=0.5;exitDx=0;exitDy=0;" parent="1" source="7dxSffOUapI8bhPMduBq-105" target="7dxSffOUapI8bhPMduBq-99" edge="1">
          <mxGeometry relative="1" as="geometry">
            <mxPoint x="660" y="550" as="targetPoint" />
            <mxPoint x="560" y="610" as="sourcePoint" />
          </mxGeometry>
        </mxCell>
        <mxCell id="7dxSffOUapI8bhPMduBq-105" value="&lt;b&gt;Check Constrains and update Guess&lt;/b&gt;" style="rounded=1;whiteSpace=wrap;html=1;fillColor=#dae8fc;strokeColor=#6c8ebf;" parent="1" vertex="1">
          <mxGeometry x="425" y="585" width="120" height="60" as="geometry" />
        </mxCell>
        <mxCell id="7dxSffOUapI8bhPMduBq-110" style="edgeStyle=orthogonalEdgeStyle;rounded=0;orthogonalLoop=1;jettySize=auto;html=1;entryX=0.575;entryY=1;entryDx=0;entryDy=0;entryPerimeter=0;exitX=1;exitY=0.5;exitDx=0;exitDy=0;" parent="1" source="7dxSffOUapI8bhPMduBq-101" target="7dxSffOUapI8bhPMduBq-105" edge="1">
          <mxGeometry relative="1" as="geometry" />
        </mxCell>
        <mxCell id="psU2joZIZZBoCHW19Mx0-5" style="edgeStyle=orthogonalEdgeStyle;rounded=0;orthogonalLoop=1;jettySize=auto;html=1;entryX=0.502;entryY=0.3;entryDx=0;entryDy=0;entryPerimeter=0;" parent="1" source="7dxSffOUapI8bhPMduBq-53" target="7dxSffOUapI8bhPMduBq-64" edge="1">
          <mxGeometry relative="1" as="geometry" />
        </mxCell>
        <mxCell id="psU2joZIZZBoCHW19Mx0-6" style="edgeStyle=orthogonalEdgeStyle;rounded=0;orthogonalLoop=1;jettySize=auto;html=1;entryX=0.1;entryY=0.39;entryDx=0;entryDy=0;entryPerimeter=0;" parent="1" source="7dxSffOUapI8bhPMduBq-44" target="7dxSffOUapI8bhPMduBq-49" edge="1">
          <mxGeometry relative="1" as="geometry" />
        </mxCell>
        <mxCell id="psU2joZIZZBoCHW19Mx0-8" style="edgeStyle=orthogonalEdgeStyle;rounded=0;orthogonalLoop=1;jettySize=auto;html=1;entryX=0.53;entryY=0.476;entryDx=0;entryDy=0;entryPerimeter=0;startArrow=classic;startFill=1;endArrow=none;endFill=0;" parent="1" source="7dxSffOUapI8bhPMduBq-61" target="psU2joZIZZBoCHW19Mx0-12" edge="1">
          <mxGeometry relative="1" as="geometry" />
        </mxCell>
        <mxCell id="psU2joZIZZBoCHW19Mx0-11" value="" style="shape=line;html=1;strokeWidth=6;strokeColor=#ff0000;" parent="1" vertex="1">
          <mxGeometry x="92" y="440" width="300" height="10" as="geometry" />
        </mxCell>
        <mxCell id="psU2joZIZZBoCHW19Mx0-12" value="" style="shape=line;html=1;strokeWidth=6;strokeColor=#ff0000;" parent="1" vertex="1">
          <mxGeometry x="83" y="220" width="300" height="10" as="geometry" />
        </mxCell>
        <mxCell id="psU2joZIZZBoCHW19Mx0-14" style="edgeStyle=orthogonalEdgeStyle;rounded=0;orthogonalLoop=1;jettySize=auto;html=1;entryX=0.967;entryY=0.59;entryDx=0;entryDy=0;entryPerimeter=0;startArrow=classic;startFill=1;endArrow=none;endFill=0;" parent="1" source="7dxSffOUapI8bhPMduBq-25" target="psU2joZIZZBoCHW19Mx0-12" edge="1">
          <mxGeometry relative="1" as="geometry" />
        </mxCell>
        <mxCell id="psU2joZIZZBoCHW19Mx0-15" style="edgeStyle=orthogonalEdgeStyle;rounded=0;orthogonalLoop=1;jettySize=auto;html=1;entryX=0.528;entryY=0.514;entryDx=0;entryDy=0;entryPerimeter=0;" parent="1" source="7dxSffOUapI8bhPMduBq-61" target="7dxSffOUapI8bhPMduBq-49" edge="1">
          <mxGeometry relative="1" as="geometry" />
        </mxCell>
        <mxCell id="psU2joZIZZBoCHW19Mx0-16" style="edgeStyle=orthogonalEdgeStyle;rounded=0;orthogonalLoop=1;jettySize=auto;html=1;entryX=0.965;entryY=0.552;entryDx=0;entryDy=0;entryPerimeter=0;" parent="1" source="7dxSffOUapI8bhPMduBq-25" target="7dxSffOUapI8bhPMduBq-49" edge="1">
          <mxGeometry relative="1" as="geometry" />
        </mxCell>
        <mxCell id="psU2joZIZZBoCHW19Mx0-17" style="edgeStyle=orthogonalEdgeStyle;rounded=0;orthogonalLoop=1;jettySize=auto;html=1;entryX=0.5;entryY=0.314;entryDx=0;entryDy=0;entryPerimeter=0;" parent="1" source="7dxSffOUapI8bhPMduBq-36" target="psU2joZIZZBoCHW19Mx0-12" edge="1">
          <mxGeometry relative="1" as="geometry" />
        </mxCell>
        <mxCell id="psU2joZIZZBoCHW19Mx0-18" style="edgeStyle=orthogonalEdgeStyle;rounded=0;orthogonalLoop=1;jettySize=auto;html=1;entryX=0.47;entryY=0.467;entryDx=0;entryDy=0;entryPerimeter=0;" parent="1" source="7dxSffOUapI8bhPMduBq-49" target="psU2joZIZZBoCHW19Mx0-11" edge="1">
          <mxGeometry relative="1" as="geometry" />
        </mxCell>
        <mxCell id="lNXBDe2plU8eYSZdUBsX-1" value="&lt;b&gt;Credit Market, Portfolio&lt;/b&gt;: `R_t^{C,Y}, R_{t}^{C,O}, R_t^F-&amp;gt; R_t`&lt;br&gt;`-&amp;gt;A_t,J_t^Y`" style="rounded=1;whiteSpace=wrap;html=1;fontSize=12;fillColor=#fff2cc;strokeColor=#d6b656;" parent="1" vertex="1">
          <mxGeometry x="253" y="700" width="120" height="60" as="geometry" />
        </mxCell>
        <mxCell id="lNXBDe2plU8eYSZdUBsX-2" style="edgeStyle=orthogonalEdgeStyle;rounded=0;orthogonalLoop=1;jettySize=auto;html=1;entryX=0.783;entryY=0.54;entryDx=0;entryDy=0;entryPerimeter=0;exitX=0.5;exitY=1;exitDx=0;exitDy=0;" parent="1" source="lNXBDe2plU8eYSZdUBsX-1" edge="1">
          <mxGeometry relative="1" as="geometry">
            <mxPoint x="308.1126582278481" y="760" as="sourcePoint" />
            <mxPoint x="312.9999999999999" y="784.4" as="targetPoint" />
            <Array as="points">
              <mxPoint x="313" y="770" />
              <mxPoint x="313" y="770" />
            </Array>
          </mxGeometry>
        </mxCell>
        <mxCell id="MLq6qDdYJxUvrXIlotc3-2" value="&lt;b style=&quot;border-color: var(--border-color);&quot;&gt;Additional terms:&amp;nbsp;&lt;/b&gt;&lt;br style=&quot;border-color: var(--border-color);&quot;&gt;`\bar{E}_{t},\hat{q}_t, E_t`" style="rounded=1;whiteSpace=wrap;html=1;fontSize=12;fillColor=#ffe6cc;strokeColor=#d79b00;" parent="1" vertex="1">
          <mxGeometry x="253" y="930" width="120" height="60" as="geometry" />
        </mxCell>
        <mxCell id="MLq6qDdYJxUvrXIlotc3-3" style="edgeStyle=orthogonalEdgeStyle;rounded=0;orthogonalLoop=1;jettySize=auto;html=1;entryX=0.768;entryY=0.313;entryDx=0;entryDy=0;entryPerimeter=0;" parent="1" source="MLq6qDdYJxUvrXIlotc3-2" target="7dxSffOUapI8bhPMduBq-82" edge="1">
          <mxGeometry relative="1" as="geometry">
            <Array as="points">
              <mxPoint x="313" y="1010" />
              <mxPoint x="313" y="1010" />
            </Array>
          </mxGeometry>
        </mxCell>
      </root>
    </mxGraphModel>
  </diagram>
</mxfile>
